<svg width="400" height="194" viewBox="0 0 400 194" fill="none" xmlns="http://www.w3.org/2000/svg">
<mask id="path-1-inside-1_43_2" fill="white">
<path d="M0 38.0325H400V173.712C400 184.758 391.046 193.712 380 193.712H20C8.95431 193.712 0 184.758 0 173.712V38.0325Z"/>
</mask>
<path d="M0 38.0325H400V173.712C400 184.758 391.046 193.712 380 193.712H20C8.95431 193.712 0 184.758 0 173.712V38.0325Z" stroke="black" stroke-opacity="0.83" stroke-width="60" mask="url(#path-1-inside-1_43_2)"/>
<path fill-rule="evenodd" clip-rule="evenodd" d="M15.536 0H0V15.536L15.536 0ZM0 28.0357V35.3955H8.29764L8.01215 35.1101L43.1222 0H28.0357L0 28.0357ZM113.228 0H129.633L94.2378 35.3955H77.8328L113.228 0ZM124.018 35.3955H106.737L142.133 0H157.422L123.022 34.3999L124.018 35.3955ZM100.729 0H83.7152L48.3196 35.3955H65.3332L100.729 0ZM55.6218 0H71.2155L35.82 35.3955H20.2263L55.6218 0ZM149.069 35.3955H134.526L169.922 0H183.488L148.581 34.907L149.069 35.3955ZM269.998 0H253.593L218.198 35.3955H234.603L269.998 0ZM247.102 35.3955H263.977L263.387 34.8058L298.193 0H282.498L247.102 35.3955ZM224.081 0H241.094L205.698 35.3955H188.685L224.081 0ZM211.581 0H195.987L160.592 35.3955H176.186L211.581 0ZM275.297 35.3955H289.029L288.946 35.3129L324.259 0H310.693L275.297 35.3955ZM400 0V8.53794L373.142 35.3955H357.447L392.843 0H400ZM400 35.3955H385.642L400 21.0376V35.3955ZM380.343 0H364.852L329.456 35.3955H344.948L380.343 0ZM336.758 0H352.352L316.957 35.3955H301.363L336.758 0Z" fill="black" fill-opacity="0.83"/>
</svg>
